<svg width="55" height="55" viewBox="0 0 55 55" fill="none" xmlns="http://www.w3.org/2000/svg">
						<path d="M55 27.5C55 42.6878 42.6878 55 27.5 55C12.3122 55 0 42.6878 0 27.5C0 12.3122 12.3122 0 27.5 0C42.6878 0 55 12.3122 55 27.5Z" fill="#E58829"/>
						<path d="M40.3765 35.8825H38.3048C38.3025 35.8825 38.3003 35.8825 38.298 35.8825H36.4344V30.8826C36.5619 30.8392 36.707 30.815 36.8886 30.815C37.2329 30.815 37.5121 30.5358 37.5121 30.1915V28.6975C37.5121 26.9786 36.1136 25.5801 34.3946 25.5801H29.621V22.0958C29.621 21.7515 29.3418 21.4723 28.9975 21.4723H27.0024C26.658 21.4723 26.3789 21.7515 26.3789 22.0958V25.5801H21.6052C19.8863 25.5801 18.4878 26.9786 18.4878 28.6975V30.1915C18.4878 30.5358 18.767 30.815 19.1113 30.815C19.2928 30.815 19.4381 30.8392 19.5654 30.8826V35.8824H17.7006H17.6968H15.6235C15.2791 35.8824 15 36.1616 15 36.5059C15 36.8503 15.2791 37.1294 15.6235 37.1294H17.1836L17.7528 39.9828C17.8109 40.2744 18.0669 40.4843 18.3642 40.4843H37.6358C37.9331 40.4843 38.1891 40.2744 38.2472 39.9828L38.8164 37.1294H40.3765C40.7208 37.1294 41 36.8503 41 36.5059C41 36.1617 40.7208 35.8825 40.3765 35.8825ZM27.6259 22.7193H28.3741V25.5801H27.6259V22.7193ZM19.7348 28.6976C19.7348 27.6662 20.5739 26.8271 21.6053 26.8271H34.3946C35.426 26.8271 36.2651 27.6662 36.2651 28.6976V29.6349C35.6821 29.7685 35.3152 30.0774 35.0055 30.338C34.6642 30.6252 34.4388 30.815 33.9255 30.815C33.4121 30.815 33.1866 30.6252 32.8454 30.338C32.4378 29.995 31.9305 29.568 30.9623 29.568C29.9942 29.568 29.487 29.995 29.0795 30.338C28.7382 30.6252 28.5128 30.815 27.9996 30.815C27.4864 30.815 27.261 30.6252 26.9197 30.338C26.5122 29.995 26.005 29.568 25.0368 29.568C24.0687 29.568 23.5615 29.995 23.154 30.338C22.8128 30.6252 22.5873 30.815 22.0742 30.815C21.561 30.815 21.3355 30.6252 20.9944 30.338C20.6849 30.0774 20.3178 29.7685 19.735 29.635L19.7348 28.6976ZM20.8125 31.747C21.1299 31.9266 21.5289 32.062 22.074 32.062C23.0422 32.062 23.5493 31.635 23.9569 31.292C24.2982 31.0048 24.5235 30.815 25.0367 30.815C25.5499 30.815 25.7754 31.0048 26.1166 31.292C26.5241 31.635 27.0313 32.062 27.9995 32.062C28.9677 32.062 29.4749 31.635 29.8824 31.292C30.2237 31.0047 30.4491 30.815 30.9622 30.815C31.4755 30.815 31.701 31.0048 32.0423 31.292C32.4498 31.635 32.9571 32.062 33.9253 32.062C34.4708 32.062 34.8699 31.9265 35.1873 31.7468V35.8825H20.8125V31.747ZM37.1244 39.2374H18.8756L18.4552 37.1295H37.5448L37.1244 39.2374Z" fill="white"/>
						<path d="M27.9999 20.8487C29.2686 20.8487 30.3008 19.8165 30.3008 18.5478C30.3008 17.4775 28.9051 15.732 28.4774 15.2225C28.359 15.0813 28.1841 14.9999 27.9999 14.9999C27.8157 14.9999 27.6408 15.0814 27.5224 15.2225C27.0947 15.732 25.699 17.4775 25.699 18.5478C25.699 19.8165 26.7312 20.8487 27.9999 20.8487ZM28.0001 16.6311C28.567 17.3961 29.0538 18.2198 29.0538 18.5478C29.0538 19.1289 28.5811 19.6017 27.9999 19.6017C27.4187 19.6017 26.946 19.1289 26.946 18.5478C26.946 18.2206 27.4331 17.3967 28.0001 16.6311Z" fill="white"/>
					</svg>