<svg width="55" height="55" viewBox="0 0 55 55" fill="none" xmlns="http://www.w3.org/2000/svg">
						<circle cx="27.5" cy="27.5" r="27.5" fill="#E58829"/>
						<path d="M28.0007 15.333C28.8336 15.333 29.6558 15.4204 30.4575 15.5923C31.1349 15.7376 31.3828 16.5752 30.8936 17.0658C30.3512 17.6096 30.0423 18.3415 30.0423 19.1247C30.0423 20.4902 30.9887 21.6647 32.3008 21.967C32.7325 22.0664 33.0218 22.4729 32.9743 22.9134C32.9641 23.0082 32.959 23.1066 32.959 23.208C32.959 24.8188 34.2648 26.1247 35.8757 26.1247C36.7234 26.1247 37.5105 25.7622 38.0614 25.1392C38.5621 24.5731 39.4966 24.8652 39.5858 25.6156C39.64 26.0719 39.6673 26.534 39.6673 26.9997C39.6673 33.443 34.444 38.6663 28.0007 38.6663C21.5573 38.6663 16.334 33.443 16.334 26.9997C16.334 20.5564 21.5573 15.333 28.0007 15.333ZM28.0007 17.083C22.5238 17.083 18.084 21.5229 18.084 26.9997C18.084 32.4765 22.5238 36.9163 28.0007 36.9163C33.1768 36.9163 37.4267 32.9506 37.8777 27.8917L37.8999 27.5929L37.908 27.4092L37.6822 27.5119C37.2966 27.6738 36.8875 27.7843 36.4648 27.8377L36.1452 27.867L35.8757 27.8747C33.5352 27.8747 31.5972 26.1518 31.2607 23.9051L31.2317 23.6709L31.2148 23.453L31.0458 23.3826C29.5475 22.7095 28.4905 21.2783 28.3174 19.6096L28.2981 19.3576L28.2923 19.1247C28.2923 18.6033 28.3784 18.0953 28.5415 17.6171L28.6485 17.3339L28.7473 17.1122L28.425 17.0919L28.0007 17.083ZM31.5007 31.6663C32.145 31.6663 32.6673 32.1887 32.6673 32.833C32.6673 33.4773 32.145 33.9997 31.5007 33.9997C30.8563 33.9997 30.334 33.4773 30.334 32.833C30.334 32.1887 30.8563 31.6663 31.5007 31.6663ZM23.334 30.4997C23.9783 30.4997 24.5007 31.022 24.5007 31.6663C24.5007 32.3107 23.9783 32.833 23.334 32.833C22.6897 32.833 22.1673 32.3107 22.1673 31.6663C22.1673 31.022 22.6897 30.4997 23.334 30.4997ZM28.0007 25.833C28.645 25.833 29.1673 26.3553 29.1673 26.9997C29.1673 27.644 28.645 28.1663 28.0007 28.1663C27.3563 28.1663 26.834 27.644 26.834 26.9997C26.834 26.3553 27.3563 25.833 28.0007 25.833ZM22.1673 22.333C22.8117 22.333 23.334 22.8553 23.334 23.4997C23.334 24.144 22.8117 24.6663 22.1673 24.6663C21.523 24.6663 21.0007 24.144 21.0007 23.4997C21.0007 22.8553 21.523 22.333 22.1673 22.333Z" fill="white"/>
						</svg>