<svg width="55" height="55" viewBox="0 0 55 55" fill="none" xmlns="http://www.w3.org/2000/svg">
						<circle cx="27.5" cy="27.5" r="27.5" fill="#E58829"/>
						<path d="M36.7368 18.5262H35.7037H35.1325H31.2549H30.6836H25.2557H18.2632C15.9127 18.5262 14 20.4384 14 22.7893V25.6314C14 26.7692 14.4481 27.8412 15.2624 28.6488C15.6641 29.0476 15.8947 29.644 15.8947 30.284V33.6708C15.8947 35.7678 17.6005 37.4731 19.697 37.4731H23.2643H35.7165C37.5852 37.4731 39.1053 35.953 39.1053 34.0848V30.392C39.1053 29.6971 39.3601 29.0472 39.8229 28.5616C40.5817 27.7654 41 26.7247 41 25.6314V22.7893C41 20.4384 39.0873 18.5262 36.7368 18.5262ZM35.7037 19.4735C35.7345 19.4735 35.7558 19.4825 35.7615 19.4873C36.2807 19.951 36.3929 20.5763 36.1045 21.3995C36.0983 21.4161 36.0846 21.4749 36.0059 21.464C35.9297 21.4611 35.915 21.409 35.9103 21.392C35.7445 20.7913 35.4546 20.2002 35.0482 19.6341C35.0245 19.601 35.0216 19.5654 35.0401 19.5294C35.0529 19.5039 35.0799 19.4735 35.1329 19.4735H35.7037ZM31.2549 19.4735C31.2857 19.4735 31.307 19.4825 31.3127 19.4873C31.8318 19.951 31.9441 20.5763 31.6552 21.3991C31.6495 21.4156 31.6414 21.4749 31.5566 21.464C31.4804 21.4611 31.4657 21.409 31.4609 21.392C31.2952 20.7913 31.0053 20.2002 30.5988 19.6341C30.5752 19.601 30.5723 19.5654 30.5908 19.5294C30.6036 19.5039 30.6306 19.4735 30.6836 19.4735H31.2549ZM19.697 36.5262C18.1229 36.5262 16.8421 35.2453 16.8421 33.6713V30.2844C16.8421 29.3934 16.5096 28.5522 15.9298 27.9766C15.296 27.3476 14.9474 26.5149 14.9474 25.6314V22.7893C14.9474 20.9614 16.4347 19.4735 18.2632 19.4735H25.2557C26.6237 19.4735 27.7368 20.5867 27.7368 21.9547V25.6314C27.7368 26.5149 27.3882 27.3476 26.7549 27.9762C26.1661 28.5602 25.8421 29.3011 25.8421 30.0623V33.9479C25.8421 35.3694 24.6858 36.5257 23.2643 36.5257H19.697V36.5262ZM40.0526 25.6314C40.0526 26.4798 39.7272 27.2889 39.1365 27.9089C38.5056 28.5711 38.1579 29.4531 38.1579 30.3924V34.0853C38.1579 35.4315 37.0627 36.5262 35.7165 36.5262H25.6607C26.3532 35.882 26.7895 34.9663 26.7895 33.9484V30.0627C26.7895 29.5559 27.014 29.0538 27.4218 28.6493C28.2361 27.8412 28.6842 26.7692 28.6842 25.6314V21.9547C28.6842 20.9784 28.2721 20.0983 27.6151 19.4735H29.6463C29.6216 19.7222 29.678 19.9752 29.8301 20.1864C30.1711 20.6615 30.4127 21.1518 30.5486 21.644C30.6713 22.0873 31.0635 22.3952 31.5258 22.4109C31.5386 22.4113 31.5514 22.4113 31.5642 22.4113C32.0161 22.4113 32.4007 22.1404 32.5504 21.7126C32.8488 20.8614 32.8214 20.1031 32.4879 19.4731H34.0956C34.0709 19.7217 34.1273 19.9747 34.2794 20.186C34.6204 20.6611 34.862 21.1513 34.9979 21.6435C35.1225 22.0935 35.5057 22.3947 35.9747 22.4104C35.9875 22.4109 36.0003 22.4109 36.0135 22.4109C36.4654 22.4109 36.8501 22.1404 37.0002 21.7122V21.7117C37.2967 20.8647 37.2707 20.1106 36.9424 19.483C38.6742 19.5901 40.0526 21.0301 40.0526 22.7893V25.6314Z" fill="white"/>
						<path d="M36.2635 28.4735H32.0004C31.7389 28.4735 31.5267 28.6852 31.5267 28.9471C31.5267 29.2091 31.7389 29.4208 32.0004 29.4208H36.2635C36.525 29.4208 36.7372 29.2091 36.7372 28.9471C36.7372 28.6852 36.525 28.4735 36.2635 28.4735Z" fill="white"/>
						<path d="M30.1057 28.4735H29.1583C28.8968 28.4735 28.6846 28.6852 28.6846 28.9471C28.6846 29.2091 28.8968 29.4208 29.1583 29.4208H30.1057C30.3672 29.4208 30.5794 29.2091 30.5794 28.9471C30.5794 28.6852 30.3672 28.4735 30.1057 28.4735Z" fill="white"/>
						<path d="M19.309 31.4137L20.0195 30.7032C20.2047 30.518 20.2047 30.2186 20.0195 30.0334C19.8343 29.8482 19.5349 29.8482 19.3497 30.0334L18.6392 30.7439C18.454 30.9291 18.454 31.2285 18.6392 31.4137C18.7316 31.5061 18.8528 31.5525 18.9741 31.5525C19.0954 31.5525 19.2166 31.5061 19.309 31.4137Z" fill="white"/>
						<path d="M22.8071 28.1861C22.9502 28.1861 23.0913 28.1216 23.1842 27.9989C23.3429 27.791 23.3026 27.494 23.0946 27.3353L22.2951 26.7266C22.0866 26.5679 21.7896 26.6082 21.6314 26.8166C21.4727 27.0246 21.513 27.3216 21.721 27.4803L22.5205 28.0889C22.6063 28.1543 22.7072 28.1861 22.8071 28.1861Z" fill="white"/>
						<path d="M19.6452 33.6455C19.4367 33.4868 19.1397 33.5276 18.9815 33.7355C18.8228 33.9435 18.8631 34.2405 19.0711 34.3991L19.8706 35.0078C19.9564 35.0732 20.0573 35.1045 20.1572 35.1045C20.3003 35.1045 20.4414 35.04 20.5343 34.9174C20.693 34.7094 20.6527 34.4124 20.4447 34.2537L19.6452 33.6455Z" fill="white"/>
						<path d="M24.0092 32.2895C23.9348 32.0385 23.671 31.8987 23.42 31.9703L22.457 32.2564C22.2064 32.3312 22.0633 32.5951 22.1382 32.8456C22.1993 33.0517 22.3878 33.1843 22.592 33.1843C22.6365 33.1843 22.682 33.1777 22.7274 33.1649L23.6904 32.8788C23.941 32.8039 24.0841 32.5401 24.0092 32.2895Z" fill="white"/>
						<path d="M17.3324 22.8872L18.043 22.1767C18.2282 21.9915 18.2282 21.6921 18.043 21.5069C17.8578 21.3217 17.5584 21.3217 17.3732 21.5069L16.6627 22.2174C16.4774 22.4026 16.4774 22.702 16.6627 22.8872C16.755 22.9796 16.8763 23.026 16.9975 23.026C17.1188 23.026 17.2401 22.9796 17.3324 22.8872Z" fill="white"/>
						<path d="M18.4681 25.7277L17.6685 25.119C17.4601 24.9603 17.1631 25.0011 17.0049 25.209C16.8462 25.417 16.8865 25.714 17.0944 25.8727L17.894 26.4813C17.9797 26.5472 18.0806 26.5784 18.1806 26.5784C18.3236 26.5784 18.4648 26.514 18.5576 26.3913C18.7168 26.1834 18.6765 25.8864 18.4681 25.7277Z" fill="white"/>
						<path d="M25.8514 26.2959C25.8774 26.2959 25.9039 26.2935 25.9305 26.2892C26.1881 26.2456 26.3625 26.0012 26.3184 25.7435L26.1512 24.7526C26.1076 24.4944 25.8656 24.322 25.6055 24.3642C25.3478 24.4078 25.1735 24.6522 25.2176 24.9099L25.3848 25.9008C25.4236 26.1324 25.6245 26.2959 25.8514 26.2959Z" fill="white"/>
						<path d="M22.0326 23.763C21.9582 23.5124 21.6944 23.3722 21.4433 23.4437L20.4803 23.7298C20.2298 23.8047 20.0867 24.0685 20.1615 24.3191C20.2226 24.5252 20.4112 24.6578 20.6153 24.6578C20.6599 24.6578 20.7053 24.6512 20.7508 24.6384L21.7138 24.3523C21.9644 24.2774 22.1074 24.0136 22.0326 23.763Z" fill="white"/>
						<path d="M23.302 22.2839L24.2389 22.6477C24.2953 22.6695 24.3531 22.6794 24.4104 22.6794C24.5999 22.6794 24.7794 22.5648 24.8519 22.3772C24.9466 22.1328 24.8258 21.8585 24.5819 21.7638L23.6449 21.4C23.401 21.3058 23.1262 21.4265 23.032 21.67C22.9372 21.9144 23.058 22.1887 23.302 22.2839Z" fill="white"/>
						</svg>